<svg width="24" height="24" viewBox="0 0 24 24" fill="none" xmlns="http://www.w3.org/2000/svg">
<g clip-path="url(#clip0_5_1860)">
<path d="M14.9381 5.90315V8.33605C14.9381 8.33605 19.0111 9.37982 23.2516 12.8158C23.4111 12.945 23.649 12.8328 23.649 12.6275V1.61166C23.649 1.4064 23.4111 1.29422 23.2516 1.42341C19.0111 4.85939 14.9381 5.90315 14.9381 5.90315Z" fill="#E27900"/>
<path d="M23.649 1.61164V12.6276C23.649 12.8327 23.4112 12.945 23.2516 12.8158C23.0367 12.6416 22.8228 12.4741 22.6094 12.3126V1.92669C22.8228 1.7652 23.0367 1.59762 23.2516 1.42353C23.4112 1.2943 23.649 1.40666 23.649 1.61164Z" fill="#EF8318"/>
<path d="M14.9381 5.9032H2.06714V8.33643H14.9381V5.9032Z" fill="#E27900"/>
<path d="M14.9381 5.9032H13.7311V8.33643H14.9381V5.9032Z" fill="#EF8318"/>
<path d="M1.83299 8.71602H0.584998C0.455764 8.71602 0.350952 8.61121 0.350952 8.48198V5.75761C0.350952 5.62837 0.455764 5.52356 0.584998 5.52356H1.83299C1.96223 5.52356 2.06704 5.62837 2.06704 5.75761V8.48202C2.06704 8.61121 1.96223 8.71602 1.83299 8.71602Z" fill="#B76035"/>
<path d="M3.56848 8.33643V18.2139V22.3973C3.56848 22.5721 3.75303 22.6852 3.9087 22.6059L8.39636 20.3205C8.46311 20.2865 8.542 20.2865 8.60875 20.3205L13.0964 22.6059C13.2521 22.6852 13.4366 22.5721 13.4366 22.3973V18.2139V8.33643H3.56848Z" fill="#880101"/>
<path d="M13.4367 8.33643V22.3972C13.4367 22.5723 13.2523 22.6851 13.0965 22.606L11.9357 22.0148V8.33643H13.4367Z" fill="#AF0000"/>
<path d="M6.06757 5.90234H4.48535V8.33632H6.06757V5.90234Z" fill="#AF0000"/>
<path d="M12.5201 5.90234H10.9379V8.33632H12.5201V5.90234Z" fill="#AF0000"/>
<path d="M12.5199 5.90234H11.7289V8.33632H12.5199V5.90234Z" fill="#AF0000"/>
<path d="M6.06743 5.90234H5.27637V8.33632H6.06743V5.90234Z" fill="#AF0000"/>
<path d="M11.9433 14.4996L11.7938 13.8375C11.7774 13.7648 11.7098 13.7153 11.6354 13.7217L10.0594 13.8568C9.6703 13.8901 9.34508 13.5649 9.37846 13.1759L9.51355 11.5998C9.51993 11.5254 9.47043 11.4578 9.39768 11.4414L8.73543 11.2919C8.71377 11.287 8.69127 11.287 8.66962 11.2919L8.00756 11.4413C7.93476 11.4578 7.88531 11.5254 7.89168 11.5998L8.02678 13.1758C8.0601 13.5648 7.73489 13.8901 7.34587 13.8567L5.76985 13.7216C5.69546 13.7153 5.62782 13.7647 5.61141 13.8375L5.46193 14.4996C5.45705 14.5212 5.457 14.5437 5.46193 14.5654L5.61146 15.2276C5.62786 15.3004 5.6955 15.3499 5.76989 15.3435L7.34592 15.2084C7.73493 15.1751 8.0602 15.5003 8.02682 15.8893L7.89173 17.4653C7.88536 17.5397 7.93486 17.6074 8.00761 17.6238L8.66967 17.7733C8.69132 17.7782 8.71382 17.7782 8.73548 17.7733L9.39773 17.6238C9.47052 17.6073 9.52002 17.5397 9.5136 17.4653L9.37851 15.8893C9.34518 15.5002 9.6704 15.175 10.0594 15.2084L11.6354 15.3435C11.7098 15.3499 11.7775 15.3004 11.7939 15.2276L11.9434 14.5654C11.9482 14.5438 11.9482 14.5212 11.9433 14.4996Z" fill="#FFDBA9"/>
<path d="M23.6619 1.07568C23.4527 0.975979 23.2109 1.00471 23.0307 1.15078C22.4597 1.61338 21.8588 2.05813 21.2446 2.4727C21.0838 2.58116 21.0414 2.79937 21.15 2.9601C21.2584 3.12079 21.4766 3.16312 21.6373 3.05469C22.206 2.67084 22.7638 2.26171 23.298 1.8366V12.4028C19.6765 9.51945 16.2545 8.35883 15.2892 8.07054V6.16845C15.9212 5.9787 17.6184 5.40974 19.7488 4.21747C19.9179 4.12279 19.9783 3.9089 19.8837 3.73968C19.7891 3.57051 19.5752 3.51004 19.4059 3.60477C17.0384 4.92964 15.1853 5.47086 14.8916 5.55214H2.38033C2.2969 5.33075 2.08343 5.17255 1.83321 5.17255H0.585214C0.262574 5.17255 0.00012207 5.435 0.00012207 5.75764V8.48206C0.00012207 8.8047 0.262574 9.06715 0.585214 9.06715H1.83321C2.08343 9.06715 2.2969 8.90895 2.38033 8.68756H3.21747V22.3973C3.21747 22.6025 3.32186 22.789 3.4968 22.8962C3.67174 23.0035 3.88534 23.0118 4.06802 22.9187L8.50261 20.6603L12.9372 22.9187C13.0215 22.9617 13.1124 22.983 13.2031 22.983C13.3089 22.983 13.4142 22.9539 13.5085 22.8962C13.6834 22.7889 13.7878 22.6025 13.7878 22.3973V12.4526C13.7878 12.2587 13.6307 12.1015 13.4367 12.1015C13.2428 12.1015 13.0857 12.2587 13.0857 12.4526V22.2065L8.7682 20.0077C8.60189 19.923 8.40328 19.923 8.23716 20.0077L3.91961 22.2065V8.68751H13.0857V10.2058C13.0857 10.3997 13.2428 10.5569 13.4367 10.5569C13.6307 10.5569 13.7878 10.3997 13.7878 10.2058V8.68751H14.8928C15.3282 8.80812 19.1224 9.92196 23.0306 13.0885C23.1397 13.177 23.2714 13.2224 23.4046 13.2224C23.4915 13.2224 23.5792 13.2031 23.6618 13.1637C23.8704 13.0643 24 12.8588 24 12.6276V1.61174C24 1.38056 23.8705 1.1751 23.6619 1.07568ZM1.71621 5.90324V8.33647V8.36501H0.702214V5.87464H1.71621V5.90324ZM4.13425 7.98542H3.56852H2.4183V6.25433H4.13425V7.98542ZM5.71646 7.98542H4.83634V6.25433H5.71646V7.98542ZM10.5868 7.98542H6.41855V6.25433H10.5868V7.98542ZM12.169 7.98542H11.2889V6.25433H12.169V7.98542ZM14.587 7.98542H13.4368H12.8711V6.25433H14.587V7.98542Z" fill="black"/>
<path d="M10.0296 15.5584L11.6056 15.6935C11.8529 15.7146 12.0818 15.5478 12.1365 15.3051L12.286 14.6429C12.3023 14.5708 12.3023 14.4946 12.286 14.4225L12.1365 13.7605C12.0819 13.5178 11.8545 13.3512 11.6056 13.3721L10.0296 13.5072C9.9173 13.517 9.84323 13.4609 9.80897 13.4267C9.7748 13.3925 9.71883 13.3183 9.72844 13.206L9.86353 11.6302C9.88486 11.3823 9.71794 11.154 9.47517 11.0992L8.8126 10.9496C8.7406 10.9334 8.66452 10.9335 8.59252 10.9497L7.93041 11.0992C7.68784 11.1539 7.52091 11.3821 7.54205 11.63L7.67719 13.206C7.6868 13.3183 7.63084 13.3924 7.59666 13.4266C7.56245 13.4609 7.48857 13.517 7.37602 13.5071L5.80004 13.372C5.55165 13.351 5.32403 13.5177 5.26914 13.7604L5.11966 14.4224C5.10334 14.4946 5.10334 14.5708 5.11966 14.6429L5.26914 15.3052C5.32398 15.5478 5.55151 15.7147 5.80004 15.6935L7.37602 15.5584C7.48862 15.5488 7.5624 15.6047 7.59666 15.6389C7.63084 15.6731 7.6868 15.7472 7.67719 15.8595L7.54205 17.4356C7.52091 17.6833 7.68774 17.9114 7.93041 17.9664L8.59252 18.1159C8.62857 18.124 8.66564 18.1281 8.70272 18.1281C8.7398 18.1281 8.77693 18.124 8.81297 18.1159L9.47513 17.9663C9.71789 17.9116 9.88486 17.6833 9.86353 17.4355L9.72844 15.8594C9.71878 15.7472 9.77475 15.6731 9.80897 15.6389C9.84323 15.6047 9.9173 15.5488 10.0296 15.5584ZM11.6012 14.5771V14.5771C11.6011 14.5769 11.6011 14.5767 11.601 14.5764L11.6012 14.5771ZM9.31252 15.1424C9.10749 15.3474 9.00417 15.6307 9.02892 15.9195L9.14892 17.3203L8.70268 17.421L8.25661 17.3203L8.37666 15.9195C8.40136 15.6307 8.29801 15.3474 8.09302 15.1424C7.88799 14.9374 7.60505 14.8341 7.31593 14.8588L5.91512 14.9789L5.81439 14.5326L5.91512 14.0865L7.31593 14.2065C7.60505 14.2313 7.88799 14.1279 8.09302 13.923C8.29805 13.7179 8.40136 13.4347 8.37666 13.1459L8.25661 11.745L8.70277 11.6443L9.14892 11.745L9.02892 13.1458C9.00417 13.4347 9.10753 13.7179 9.31252 13.9229C9.5175 14.1279 9.80067 14.2313 10.0896 14.2065L11.4904 14.0865L11.5911 14.5326L11.4904 14.9789L10.0896 14.8588C9.80091 14.8341 9.5175 14.9375 9.31252 15.1424Z" fill="black"/>
</g>
<defs>
<clipPath id="clip0_5_1860">
<rect width="23.9999" height="23.9999" fill="white"/>
</clipPath>
</defs>
</svg>
