<svg width="24" height="24" viewBox="0 0 24 24" fill="none" xmlns="http://www.w3.org/2000/svg">
<path d="M12.7575 6.43276H11.2425C10.9791 6.43276 10.7655 6.2192 10.7655 5.95576V3.39118C10.7655 3.12775 10.9791 2.91418 11.2425 2.91418H12.7575C13.0209 2.91418 13.2345 3.12775 13.2345 3.39118V5.95581C13.2345 6.2192 13.0209 6.43276 12.7575 6.43276Z" fill="#FFCD93"/>
<path d="M13.2346 3.39113V5.95589C13.2346 6.21914 13.021 6.43261 12.7574 6.43261H11.5228C11.7865 6.43261 12 6.2191 12 5.95589V3.39113C12 3.12788 11.7865 2.91394 11.5228 2.91394H12.7573C13.021 2.91394 13.2346 3.12792 13.2346 3.39113Z" fill="#B96614"/>
<path d="M12.0003 23.6481C17.0629 23.6481 21.1669 19.5441 21.1669 14.4815C21.1669 9.41886 17.0629 5.31482 12.0003 5.31482C6.93766 5.31482 2.83362 9.41886 2.83362 14.4815C2.83362 19.5441 6.93766 23.6481 12.0003 23.6481Z" fill="#FFCD93"/>
<path d="M21.1667 14.4816C21.1667 19.544 17.0624 23.6482 12 23.6482C9.14764 23.6482 6.5998 22.3452 4.91858 20.3023C6.4895 21.5649 8.48511 22.3208 10.6576 22.3208C15.7205 22.3208 19.8242 18.2166 19.8242 13.1542C19.8242 10.9442 19.042 8.91716 17.74 7.33447C19.8294 9.01429 21.1667 11.5917 21.1667 14.4816Z" fill="#B96614"/>
<path d="M12.0003 21.5794C15.9204 21.5794 19.0982 18.4016 19.0982 14.4815C19.0982 10.5615 15.9204 7.38367 12.0003 7.38367C8.08029 7.38367 4.90247 10.5615 4.90247 14.4815C4.90247 18.4016 8.08029 21.5794 12.0003 21.5794Z" fill="#D5F0F7"/>
<path d="M19.0979 14.4816C19.0979 18.4015 15.9199 21.5795 12 21.5795C9.7196 21.5795 7.68978 20.5036 6.39148 18.8318C7.54812 19.6496 8.96046 20.1301 10.4845 20.1301C14.4043 20.1301 17.5823 16.9526 17.5823 13.0327C17.5823 11.3933 17.0268 9.88382 16.093 8.68213C17.9107 9.9673 19.0979 12.0858 19.0979 14.4816Z" fill="#A6DFE8"/>
<path d="M9.23732 12.0214L10.635 15.7103C10.6588 15.7731 10.7085 15.8227 10.7713 15.8465L14.4601 17.2443C14.6491 17.316 14.8342 17.1309 14.7626 16.9419L13.3648 13.253C13.341 13.1902 13.2914 13.1406 13.2286 13.1167L9.5398 11.7189C9.35075 11.6472 9.16569 11.8323 9.23732 12.0214Z" fill="#AF0000"/>
<path d="M14.4601 17.2443L13.8201 17.0018L12.7587 14.201C12.7347 14.1381 12.6855 14.0884 12.6226 14.0644L9.57364 12.9092L9.23722 12.0214C9.16587 11.8323 9.35075 11.647 9.53984 11.7188L13.2284 13.1166C13.2912 13.1405 13.341 13.1898 13.3649 13.2527L14.7627 16.9417C14.8341 17.1308 14.6492 17.3157 14.4601 17.2443Z" fill="#E23D17"/>
<path d="M13.5864 5.09602V3.97481C14.0285 3.55462 14.3053 2.96212 14.3053 2.30545C14.3054 1.0342 13.2712 0 12 0C10.7288 0 9.69457 1.0342 9.69457 2.30541C9.69457 2.96217 9.97132 3.555 10.4135 3.97528V5.09602C5.91757 5.85352 2.48145 9.77353 2.48145 14.4816C2.48149 19.73 6.75148 24 12 24C13.7592 24 15.4779 23.5162 16.9701 22.6009C17.1358 22.4993 17.1877 22.2825 17.0861 22.1169C16.9844 21.9512 16.7678 21.8993 16.6021 22.001C15.2208 22.8483 13.6294 23.2962 12 23.2962C7.1396 23.2962 3.18537 19.342 3.18537 14.4816C3.18537 9.62114 7.13955 5.66691 12 5.66691C16.8604 5.66691 20.8146 9.62114 20.8146 14.4816C20.8146 16.8194 19.9089 19.0218 18.2642 20.683C18.1274 20.8212 18.1285 21.044 18.2667 21.1807C18.4048 21.3174 18.6276 21.3164 18.7644 21.1782C20.5404 19.3844 21.5185 17.0061 21.5185 14.4816C21.5185 9.77348 18.0824 5.85352 13.5864 5.09602ZM12 0.703828C12.8831 0.703828 13.6016 1.42228 13.6016 2.30541C13.6016 2.53744 13.5515 2.75789 13.4623 2.95706C13.3161 2.72062 13.0553 2.56228 12.7575 2.56228H11.2425C10.9447 2.56228 10.6837 2.72072 10.5376 2.95725C10.4484 2.75803 10.3984 2.53753 10.3984 2.30545C10.3984 1.42228 11.1169 0.703828 12 0.703828ZM11.1174 5.00437V3.39117C11.1174 3.32222 11.1735 3.26606 11.2425 3.26606H12.7575C12.8264 3.26606 12.8826 3.32217 12.8826 3.39117V5.00433C12.5919 4.97747 12.2976 4.96303 12 4.96303C11.7023 4.96308 11.4081 4.97747 11.1174 5.00437Z" fill="black"/>
<path d="M5.3669 11.9256C5.18207 11.8646 4.98332 11.9651 4.92257 12.1498C4.67554 12.9 4.55029 13.6845 4.55029 14.4815C4.55029 18.5892 7.8922 21.9312 11.9999 21.9312C16.1077 21.9312 19.4496 18.5893 19.4496 14.4815C19.4496 10.3738 16.1077 7.03186 11.9999 7.03186C9.61762 7.03186 7.36021 8.1855 5.96151 10.1178C5.84756 10.2752 5.88276 10.4952 6.04026 10.6092C6.19762 10.7232 6.41765 10.6879 6.53165 10.5305C7.79845 8.78049 9.84262 7.73564 11.9999 7.73564C15.7196 7.73564 18.7458 10.7618 18.7458 14.4815C18.7458 18.2011 15.7197 21.2273 11.9999 21.2273C8.28023 21.2273 5.25417 18.2011 5.25417 14.4815C5.25417 13.7594 5.36751 13.0489 5.59115 12.3699C5.6519 12.1853 5.55154 11.9864 5.3669 11.9256Z" fill="black"/>
<path d="M7.38123 14.4816C7.38123 14.6759 7.53873 14.8334 7.73312 14.8334H9.92654L10.2628 15.721L8.73394 17.2499C8.59651 17.3873 8.59651 17.6101 8.73394 17.7475C8.80266 17.8162 8.89276 17.8506 8.9828 17.8506C9.07285 17.8506 9.16294 17.8162 9.23166 17.7475L10.7605 16.2187L11.648 16.555V18.7484C11.648 18.9427 11.8055 19.1003 11.9999 19.1003C12.1943 19.1003 12.3519 18.9427 12.3519 18.7484V16.8217L14.3353 17.5734C14.4045 17.5996 14.4757 17.6124 14.5458 17.6124C14.6975 17.6124 14.8448 17.5527 14.9579 17.4396C15.1232 17.2743 15.1744 17.0357 15.0916 16.8172L14.34 14.8335H16.2667C16.4611 14.8335 16.6186 14.676 16.6186 14.4816C16.6186 14.2873 16.4611 14.1297 16.2667 14.1297H14.0733L13.737 13.2422L15.2659 11.7134C15.4033 11.5759 15.4033 11.3531 15.2659 11.2157C15.1284 11.0782 14.9056 11.0782 14.7682 11.2157L13.2393 12.7445L12.3518 12.4082V10.2148C12.3518 10.0205 12.1943 9.86292 11.9999 9.86292C11.8055 9.86292 11.648 10.0205 11.648 10.2148V12.1415L9.66451 11.3898C9.44574 11.3069 9.20724 11.3582 9.04191 11.5236C8.87659 11.689 8.82535 11.9275 8.90823 12.1461L8.90818 12.1461L9.65977 14.1297H7.73307C7.53877 14.1297 7.38123 14.2872 7.38123 14.4816ZM13.0545 13.427L14.3412 16.8229L10.9454 15.5361L9.65874 12.1402L13.0545 13.427Z" fill="black"/>
<path d="M12 9.21162C12.1944 9.21162 12.3519 9.05407 12.3519 8.85973V8.50118C12.3519 8.30684 12.1944 8.14929 12 8.14929C11.8056 8.14929 11.6481 8.30684 11.6481 8.50118V8.85973C11.6481 9.05407 11.8056 9.21162 12 9.21162Z" fill="black"/>
<path d="M12 19.7515C11.8056 19.7515 11.6481 19.909 11.6481 20.1034V20.4619C11.6481 20.6563 11.8056 20.8138 12 20.8138C12.1944 20.8138 12.3519 20.6563 12.3519 20.4619V20.1034C12.3519 19.909 12.1944 19.7515 12 19.7515Z" fill="black"/>
<path d="M17.9803 14.8335C18.1747 14.8335 18.3323 14.6759 18.3323 14.4816C18.3323 14.2872 18.1748 14.1296 17.9803 14.1296H17.6218C17.4274 14.1296 17.2699 14.2872 17.2699 14.4816C17.2699 14.6759 17.4274 14.8335 17.6218 14.8335H17.9803Z" fill="black"/>
<path d="M6.37816 14.8335C6.57255 14.8335 6.73005 14.6759 6.73005 14.4816C6.73005 14.2872 6.57255 14.1296 6.37816 14.1296H6.01962C5.82522 14.1296 5.66772 14.2872 5.66772 14.4816C5.66772 14.6759 5.82522 14.8335 6.01962 14.8335H6.37816Z" fill="black"/>
</svg>
