<svg width="24" height="24" viewBox="0 0 24 24" fill="none" xmlns="http://www.w3.org/2000/svg">
<g clip-path="url(#clip0_5_1821)">
<path d="M12.4268 4.64563H12.0001H11.5734H11.5734C7.28527 4.64563 3.80908 8.12183 3.80908 12.41V22.8026C3.80908 23.2697 4.18774 23.6484 4.65484 23.6484H8.41697C8.55783 23.6484 8.66714 23.5255 8.65074 23.3856L7.91846 17.1525C7.90974 17.0785 7.86652 17.013 7.80188 16.9758L6.41387 16.1789C6.34079 16.1369 6.2957 16.0591 6.2957 15.9748V13.1947C6.2957 13.066 6.3991 12.9612 6.52778 12.9594L10.1518 12.9089C10.2907 12.907 10.401 13.0251 10.3897 13.1636L10.0434 17.3691C10.0385 17.4284 10.0563 17.4874 10.0932 17.5342L11.8153 19.7166C11.9095 19.836 12.0906 19.836 12.1848 19.7166L13.907 17.5342C13.9438 17.4874 13.9617 17.4284 13.9568 17.3691L13.6105 13.1636C13.5991 13.0252 13.7095 12.907 13.8484 12.9089L17.4724 12.9594C17.6011 12.9611 17.7045 13.066 17.7045 13.1947V16.111L16.1983 16.9758C16.1337 17.013 16.0904 17.0785 16.0817 17.1525L15.3494 23.3856C15.333 23.5255 15.4423 23.6484 15.5832 23.6484H19.3454C19.8125 23.6484 20.1911 23.2697 20.1911 22.8026V12.41C20.1911 8.12187 16.7149 4.64563 12.4268 4.64563Z" fill="#AEAEAE"/>
<path d="M20.1914 12.4099V22.8027C20.1914 23.2696 19.8125 23.6486 19.3455 23.6486H17.9074C18.3744 23.6486 18.7533 23.2696 18.7533 22.8027V12.4099C18.7533 8.21996 15.4342 4.80485 11.2815 4.65091C11.3785 4.64763 11.4759 4.64575 11.5738 4.64575H12.4268C16.7151 4.64575 20.1914 8.12204 20.1914 12.4099Z" fill="#D9D9D9"/>
<path d="M11.0705 0.420256C10.8723 0.449646 10.6589 0.487146 10.4478 0.534677C10.0056 0.634193 9.72663 1.02513 9.8125 1.42614L10.7933 6.00456C10.8185 6.12217 10.9334 6.2072 11.0672 6.2072H12.0003H12.9334C13.0672 6.2072 13.1821 6.12217 13.2073 6.00456L14.1881 1.42614C14.274 1.02518 13.995 0.63424 13.5528 0.534677C13.3417 0.487146 13.1283 0.449646 12.9301 0.420256C12.3145 0.32899 11.6861 0.32899 11.0705 0.420256Z" fill="#AF0000"/>
<path d="M14.1881 1.42591L13.2071 6.00451C13.182 6.12235 13.0671 6.20724 12.9332 6.20724H11.7543C11.8875 6.20724 12.003 6.12235 12.0281 6.00451L13.0085 1.42591C13.0944 1.02536 12.8156 0.634331 12.3733 0.534441C12.1625 0.487003 11.9489 0.44955 11.751 0.420066C11.6378 0.403566 11.5246 0.389597 11.4108 0.379144C11.9166 0.332175 12.4274 0.345675 12.9299 0.420066C13.1285 0.44955 13.3415 0.487003 13.5529 0.534441C13.9951 0.634331 14.2739 1.02541 14.1881 1.42591Z" fill="#E23D17"/>
<path d="M19.5386 8.49663C19.4448 8.32652 19.2309 8.26469 19.0609 8.35849C18.8908 8.45224 18.8289 8.66613 18.9227 8.83619C19.5224 9.92388 19.8394 11.1596 19.8394 12.4099V22.8025C19.8394 23.075 19.6177 23.2966 19.3453 23.2966H15.7139L16.4241 17.2515L17.8795 16.4159C17.9887 16.3531 18.0561 16.2369 18.0561 16.1109V13.1946C18.0561 12.8754 17.7964 12.6121 17.4772 12.6077L13.8532 12.5573C13.6881 12.5549 13.5288 12.6229 13.4161 12.7435C13.3034 12.8642 13.2465 13.0278 13.2601 13.1923L13.6025 17.3522L12 19.383L10.3975 17.3522L10.74 13.1924C10.7535 13.0278 10.6967 12.8642 10.584 12.7435C10.4713 12.6229 10.3131 12.5551 10.1468 12.5573L6.52283 12.6077C6.20366 12.6121 5.94397 12.8754 5.94397 13.1946V15.9746C5.94397 16.1842 6.05689 16.3793 6.23867 16.4837L7.57592 17.2515L7.8169 19.3026C7.83954 19.4955 8.01443 19.6336 8.20713 19.6108C8.40002 19.5881 8.53798 19.4134 8.51534 19.2205L8.26756 17.1113C8.24595 16.9276 8.13729 16.7629 7.97684 16.6708L6.64723 15.9073V13.3092L10.0286 13.2622L9.69293 17.3401C9.68069 17.4886 9.72475 17.6348 9.8171 17.7519L11.5392 19.9342C11.6513 20.0762 11.8192 20.1577 12.0001 20.1577C12.1809 20.1577 12.3489 20.0762 12.4608 19.9342L14.183 17.7518C14.2754 17.6348 14.3194 17.4886 14.3072 17.3401L13.9715 13.2622L17.3529 13.3092V15.9073L16.0232 16.6708C15.8628 16.7629 15.7542 16.9276 15.7326 17.1113L15.0003 23.3444C14.9807 23.5107 15.0334 23.6778 15.1447 23.8029C15.2559 23.928 15.4158 23.9998 15.5833 23.9998H19.3453C20.0055 23.9998 20.5427 23.4627 20.5427 22.8024V12.4098C20.5426 11.0412 20.1954 9.688 19.5386 8.49663Z" fill="black"/>
<path d="M8.77585 21.4366C8.75321 21.2437 8.57832 21.1056 8.38561 21.1283C8.19272 21.151 8.05477 21.3257 8.07741 21.5186L8.28633 23.2967H4.65494C4.38245 23.2967 4.16083 23.075 4.16083 22.8026V12.4099C4.16083 8.77653 6.78868 5.74583 10.2435 5.11733L10.4494 6.07822C10.509 6.35675 10.7688 6.55883 11.067 6.55883H12.9334C13.2316 6.55883 13.4914 6.35671 13.551 6.07818L13.7572 5.11583C15.2379 5.3825 16.5997 6.09341 17.6834 7.18334C17.8203 7.32106 18.043 7.32172 18.1807 7.18475C18.3184 7.04783 18.319 6.82517 18.1821 6.6875C17.0007 5.49941 15.5176 4.72269 13.9046 4.4278L14.5318 1.49976C14.6585 0.908529 14.2623 0.333937 13.63 0.191625C13.4307 0.146765 13.2126 0.106687 12.9816 0.0724217C12.3304 -0.0241406 11.6699 -0.0241406 11.0188 0.0724217C10.7878 0.106687 10.5696 0.146812 10.3703 0.191625C9.738 0.333937 9.34186 0.908529 9.46851 1.49976L10.0962 4.42963C6.32401 5.12629 3.45752 8.43922 3.45752 12.4099V22.8025C3.45752 23.4628 3.99466 23.9999 4.65489 23.9999H8.41702C8.58446 23.9999 8.74435 23.9281 8.85563 23.803C8.96691 23.6779 9.01955 23.5107 9 23.3444L8.77585 21.4366ZM10.5248 0.877733C10.7071 0.83667 10.9081 0.79978 11.1219 0.768092C11.7047 0.681655 12.2956 0.681655 12.8784 0.768092C13.0923 0.79978 13.2932 0.836717 13.4756 0.877733C13.7272 0.934358 13.8891 1.1429 13.8442 1.35248L12.8795 5.85557H11.1209L10.1562 1.35248C10.1113 1.1429 10.2732 0.934358 10.5248 0.877733Z" fill="black"/>
</g>
<defs>
<clipPath id="clip0_5_1821">
<rect width="23.9999" height="23.9999" fill="white"/>
</clipPath>
</defs>
</svg>
